<?xml version="1.0" standalone="no"?>
<!DOCTYPE svg PUBLIC "-//W3C//DTD SVG 20010904//EN"
 "http://www.w3.org/TR/2001/REC-SVG-20010904/DTD/svg10.dtd">
<svg version="1.0" xmlns="http://www.w3.org/2000/svg"
 width="1104.000000pt" height="1280.000000pt" viewBox="0 0 1104.000000 1280.000000"
 preserveAspectRatio="xMidYMid meet">
<g transform="translate(0.000000,1280.000000) scale(0.100000,-0.100000)"
fill="#000000" stroke="none">
<path d="M4939 12796 c-2 -3 -48 -14 -101 -24 -146 -30 -249 -90 -333 -194
-28 -35 -39 -40 -149 -68 -264 -66 -419 -187 -462 -363 -27 -110 -15 -173 66
-335 38 -75 73 -143 78 -151 7 -9 13 5 20 49 15 85 42 124 107 155 133 66 416
32 640 -75 76 -37 134 -84 120 -99 -6 -6 -136 -22 -290 -36 -153 -14 -281 -27
-283 -29 -2 -3 91 -52 208 -111 116 -59 243 -128 283 -154 242 -160 325 -336
272 -585 -31 -147 -106 -257 -212 -314 -119 -63 -150 -67 -450 -66 l-272 2 -7
-45 c-10 -70 1 -156 30 -218 32 -71 138 -177 223 -225 38 -21 62 -41 60 -50
-3 -17 -179 -121 -257 -152 -73 -28 -192 -30 -278 -4 -34 11 -65 16 -70 12
-14 -15 -5 -122 15 -167 55 -124 192 -217 452 -308 58 -20 106 -42 108 -48 5
-14 -87 -78 -174 -122 -69 -34 -179 -66 -265 -76 -68 -8 -202 9 -283 37 -82
27 -376 172 -450 221 -142 95 -283 268 -490 602 -38 61 -117 183 -176 272 -60
89 -119 188 -133 221 -91 216 -100 482 -23 642 18 36 33 50 82 74 247 124 330
442 209 806 -76 229 -166 354 -319 443 -277 163 -612 198 -874 92 -139 -57
-277 -162 -354 -270 -98 -139 -186 -356 -258 -640 -17 -66 -64 -266 -105 -445
-41 -179 -90 -381 -110 -450 -140 -494 -311 -799 -564 -1000 -50 -40 -87 -77
-83 -81 4 -4 46 -18 93 -31 122 -33 325 -33 422 0 117 41 217 121 337 275 47
59 57 67 87 67 28 0 35 -4 40 -25 3 -14 4 -34 1 -44 -2 -10 -212 -312 -466
-670 -276 -390 -460 -659 -457 -667 11 -29 37 -25 113 17 313 172 558 385 743
647 35 51 70 92 76 92 6 0 19 -21 29 -47 l18 -46 -48 -96 c-111 -224 -292
-496 -484 -726 -82 -98 -394 -415 -506 -513 l-70 -62 25 -20 c42 -34 161 -89
230 -106 87 -22 213 -14 310 20 150 52 383 246 651 541 146 162 199 185 199
89 0 -54 37 1 -366 -539 -434 -583 -695 -903 -951 -1166 -62 -64 -113 -120
-113 -126 0 -13 20 -18 131 -34 l86 -13 79 59 c329 246 555 436 739 620 222
221 352 396 456 610 32 66 63 126 69 133 13 14 74 16 100 2 10 -5 24 -25 30
-45 18 -54 3 -118 -42 -183 -104 -151 -186 -275 -313 -477 -191 -304 -369
-573 -450 -680 -212 -279 -442 -500 -660 -635 -110 -68 -108 -61 -45 -126 187
-192 435 -248 727 -163 57 17 93 38 180 102 133 99 399 364 510 507 106 137
269 379 373 555 46 77 90 148 98 157 21 25 96 60 114 53 21 -8 37 -47 44 -110
l7 -55 -84 -132 c-485 -773 -971 -1404 -1482 -1925 -125 -127 -138 -143 -127
-162 6 -12 13 -21 17 -21 10 0 161 88 328 192 375 233 663 465 933 751 257
273 488 635 646 1013 66 156 134 216 159 141 11 -35 -9 -84 -169 -414 -361
-746 -787 -1394 -1323 -2013 -50 -58 -91 -108 -91 -111 0 -10 174 -77 233 -89
95 -19 231 -15 312 10 198 62 474 259 725 516 259 266 416 485 706 989 168
293 213 363 266 420 48 54 73 59 65 15 -9 -42 -70 -203 -139 -365 -85 -198
-185 -392 -360 -696 -178 -311 -224 -405 -244 -501 -13 -61 -11 -158 2 -158
15 0 129 65 181 104 129 95 244 226 378 431 107 164 140 222 305 529 136 255
191 346 239 394 34 33 61 42 61 19 0 -8 -21 -49 -46 -93 -25 -43 -89 -167
-141 -274 -294 -600 -347 -706 -413 -815 -143 -236 -311 -439 -485 -583 -49
-41 -91 -78 -93 -82 -1 -4 73 -33 165 -65 179 -61 203 -71 203 -84 0 -6 -542
-454 -886 -732 l-81 -66 -170 -42 -169 -42 -57 21 c-72 27 -160 92 -219 161
-25 30 -87 119 -137 199 -107 168 -153 220 -235 260 -73 37 -148 39 -287 11
-227 -48 -369 -127 -507 -284 -58 -66 -205 -277 -198 -284 2 -2 23 4 47 12 85
30 127 36 177 23 41 -10 62 -27 162 -128 98 -100 126 -123 190 -152 129 -61
146 -63 470 -63 l295 0 3 -22 c6 -40 -66 -158 -132 -221 -62 -57 -167 -119
-241 -142 -22 -7 -117 -15 -210 -19 -167 -6 -172 -7 -237 -39 -125 -62 -231
-212 -279 -397 -26 -103 -36 -309 -20 -429 13 -96 66 -315 80 -329 5 -5 19 22
31 60 28 86 76 167 117 199 53 40 110 55 233 60 252 11 331 64 389 266 50 172
133 309 263 434 83 80 196 164 219 164 9 0 11 -47 6 -202 -4 -112 -7 -238 -7
-281 l0 -78 -59 -63 c-90 -96 -119 -168 -141 -337 l-12 -86 37 -89 c69 -168
168 -313 268 -392 66 -53 295 -188 303 -179 3 2 -3 33 -12 68 -11 40 -18 102
-18 164 -1 115 7 137 94 245 80 99 104 158 103 255 -1 100 -25 198 -63 251
-74 105 -96 274 -83 649 l8 240 47 3 c102 7 193 -43 259 -139 62 -92 121 -146
197 -182 l67 -32 164 3 c104 2 177 -2 200 -9 86 -27 130 -89 140 -194 5 -53 9
-60 29 -63 19 -3 27 6 53 64 88 195 128 378 110 509 -25 177 -132 375 -234
431 -47 26 -60 29 -147 28 -92 0 -101 -3 -260 -64 -135 -51 -179 -63 -240 -67
-59 -4 -79 -1 -95 11 -19 16 -19 17 -2 29 10 7 89 59 175 116 288 191 493 354
688 548 115 113 118 115 156 110 104 -14 249 -116 407 -287 69 -74 96 -98 102
-88 4 8 57 146 117 308 121 325 222 581 302 765 295 674 563 1037 770 1040
l45 0 -2 -120 c-2 -141 -27 -255 -92 -411 -113 -269 -348 -596 -686 -952 -59
-62 -105 -116 -102 -118 8 -9 255 36 346 63 135 38 284 106 440 198 79 47 148
85 153 85 16 0 0 -47 -49 -147 -63 -130 -133 -198 -273 -266 -58 -28 -130 -67
-160 -87 -30 -20 -121 -74 -202 -120 -81 -45 -176 -106 -211 -135 -117 -96
-206 -239 -282 -449 -20 -54 -34 -101 -31 -103 2 -3 127 36 278 86 320 106
518 163 664 191 112 21 209 26 219 10 8 -13 -97 -219 -161 -315 -63 -95 -176
-225 -256 -294 -74 -64 -103 -68 -317 -47 -91 9 -195 16 -231 16 -232 -1 -438
-123 -668 -393 -41 -49 -71 -92 -66 -97 13 -11 128 -43 432 -116 361 -87 492
-130 492 -160 0 -29 -154 -90 -316 -124 -125 -27 -510 -38 -711 -21 -120 10
-138 9 -208 -9 -222 -57 -430 -208 -538 -391 -80 -137 -113 -317 -83 -458 8
-41 18 -76 20 -79 7 -7 29 10 142 110 174 154 281 194 494 185 69 -3 141 -10
160 -16 19 -6 105 -20 190 -31 526 -68 895 -38 1148 93 87 45 195 131 244 195
22 28 46 52 53 52 15 0 10 11 85 -200 32 -91 73 -196 90 -235 48 -108 133
-227 215 -303 90 -82 247 -176 273 -163 9 5 51 26 92 45 142 68 256 180 337
332 23 44 71 162 108 263 36 101 70 192 76 203 9 16 21 7 107 -80 107 -107
171 -149 300 -198 178 -67 264 -78 577 -79 284 0 426 12 628 51 254 50 432 29
577 -69 30 -20 98 -75 150 -122 52 -47 98 -85 102 -85 15 0 33 113 32 210 -1
83 -6 121 -26 182 -80 242 -271 429 -536 521 -100 35 -116 35 -457 22 -256 -9
-428 2 -583 40 -115 28 -262 91 -262 112 0 31 107 65 565 178 193 48 354 90
359 95 12 12 -98 143 -210 250 -102 98 -212 170 -316 208 -66 24 -86 26 -218
26 -80 0 -220 -4 -312 -9 l-168 -8 -123 124 c-78 79 -146 159 -187 219 -72
109 -173 307 -163 323 11 17 181 0 313 -31 148 -36 380 -106 649 -197 107 -35
196 -63 198 -61 7 7 -59 183 -102 271 -68 142 -162 253 -280 335 -22 15 -98
60 -169 99 -71 40 -154 89 -185 110 -31 20 -81 48 -111 60 -159 67 -247 150
-321 306 -28 58 -49 112 -47 120 2 11 31 -1 113 -51 275 -166 466 -237 740
-278 50 -8 92 -12 94 -10 2 1 -55 65 -125 141 -528 567 -776 1016 -762 1380
l3 78 38 3 c77 6 202 -74 303 -196 235 -283 459 -751 794 -1657 51 -137 96
-254 101 -259 4 -5 66 50 141 126 135 137 207 192 294 226 106 41 90 48 247
-105 215 -210 432 -380 731 -573 69 -45 126 -86 126 -91 0 -18 -56 -31 -115
-26 -39 3 -109 23 -200 57 -180 68 -225 80 -311 80 -132 0 -214 -67 -299 -244
-76 -160 -90 -333 -40 -500 29 -99 103 -283 116 -292 5 -3 18 -2 29 1 16 5 20
15 20 48 0 98 46 172 124 202 44 17 102 20 281 15 72 -2 101 2 147 20 69 26
153 99 209 181 65 96 129 136 244 154 77 12 75 22 77 -340 2 -267 0 -332 -14
-391 -17 -75 -48 -145 -78 -179 -26 -30 -53 -149 -53 -241 0 -100 23 -155 112
-264 94 -115 110 -199 71 -370 -11 -47 -20 -89 -20 -93 0 -9 144 67 229 121
120 75 223 197 300 350 80 160 84 174 71 276 -14 110 -52 228 -88 276 -15 19
-46 54 -69 77 l-43 41 0 84 c0 47 -3 173 -7 281 -7 229 -11 223 88 150 213
-155 322 -303 395 -532 39 -122 52 -148 93 -194 54 -60 103 -75 288 -87 237
-15 295 -57 363 -263 12 -38 26 -65 30 -60 14 16 60 199 75 298 49 323 -23
625 -187 781 -104 100 -150 115 -351 118 -137 1 -159 4 -227 29 -89 32 -196
102 -251 166 -46 54 -99 154 -99 188 l0 24 288 -3 c245 -2 297 0 354 14 140
36 232 100 372 257 52 59 114 85 179 77 28 -4 64 -13 81 -20 40 -16 94 -29 81
-19 -5 4 -46 62 -90 128 -173 261 -334 375 -612 436 -266 59 -361 10 -539
-276 -44 -69 -100 -153 -127 -185 -56 -71 -156 -144 -230 -170 l-53 -19 -170
43 -171 43 -479 392 c-263 216 -480 399 -482 406 -2 8 62 34 183 76 102 35
185 66 185 69 0 3 -46 44 -102 90 -157 131 -309 310 -436 512 -99 157 -168
286 -334 633 -87 181 -192 391 -233 467 -41 76 -75 143 -75 149 0 6 10 9 23 7
34 -5 115 -121 218 -313 322 -599 421 -754 598 -938 94 -97 172 -158 267 -205
l62 -31 6 47 c15 117 -33 232 -263 632 -208 361 -335 622 -447 920 -61 165
-59 194 12 123 46 -46 116 -153 239 -368 342 -595 532 -858 822 -1135 203
-193 464 -375 617 -427 138 -48 312 -42 466 18 128 49 127 37 7 177 -570 657
-1043 1397 -1402 2186 -89 196 -96 227 -59 257 13 10 22 6 55 -27 28 -29 55
-76 98 -174 300 -692 740 -1195 1451 -1663 163 -106 417 -257 436 -257 6 0 17
7 24 15 11 13 -8 37 -126 158 -497 509 -972 1123 -1441 1860 -124 196 -133
219 -111 301 18 67 35 76 92 49 53 -26 49 -20 189 -250 258 -420 489 -708 736
-915 203 -169 256 -197 436 -224 224 -34 411 25 577 183 32 31 58 60 58 64 0
5 -51 42 -113 83 -258 171 -472 386 -698 701 -68 94 -228 339 -367 560 -116
185 -215 337 -306 470 -79 115 -80 116 -80 181 -1 58 2 68 23 85 15 12 39 19
67 19 l43 0 56 -117 c61 -128 165 -290 272 -423 98 -123 310 -329 489 -479
131 -109 480 -380 522 -405 16 -10 222 24 222 37 0 5 -42 54 -94 108 -287 299
-551 623 -1019 1251 l-318 427 3 48 c3 48 3 48 38 46 31 -1 48 -15 149 -125
305 -329 512 -502 661 -552 159 -53 303 -42 447 34 134 70 131 59 33 147 -47
42 -159 151 -250 242 -313 316 -559 649 -730 990 -39 78 -41 88 -31 121 6 19
17 44 24 54 13 18 15 18 33 -8 204 -288 371 -453 629 -621 61 -40 143 -89 184
-109 66 -34 75 -36 89 -23 8 9 12 21 9 29 -3 7 -211 303 -462 658 -252 355
-460 653 -463 662 -12 46 22 87 61 72 8 -3 51 -50 96 -103 167 -205 329 -283
556 -268 94 7 267 46 272 62 1 6 -23 28 -54 50 -78 56 -185 164 -253 256 -194
262 -312 581 -460 1249 -109 492 -173 709 -265 895 -35 72 -85 156 -110 187
-97 124 -290 244 -455 284 -120 30 -335 25 -465 -9 -119 -32 -297 -117 -379
-181 -67 -52 -98 -94 -160 -216 -212 -418 -149 -840 146 -975 168 -77 250
-300 184 -498 -32 -94 -78 -172 -204 -342 -445 -600 -814 -951 -1208 -1149
-96 -48 -122 -57 -200 -66 -202 -23 -390 -6 -500 44 -74 34 -145 104 -183 180
-48 98 -46 102 52 110 279 24 460 130 563 331 42 82 80 183 71 191 -2 3 -57 0
-121 -7 -158 -15 -452 -7 -531 15 -136 38 -208 101 -209 181 l-1 46 160 2
c135 2 169 6 218 24 126 47 187 133 195 274 3 44 1 79 -3 79 -4 0 -28 -18 -52
-41 -25 -22 -65 -50 -90 -61 -85 -37 -136 -3 -256 174 -53 80 -67 133 -67 261
0 200 42 427 105 567 59 131 87 243 88 350 1 114 -18 174 -87 275 -76 111 -83
165 -27 227 24 27 37 33 92 38 138 15 199 71 300 273 38 77 69 146 69 153 0 7
-39 0 -117 -23 -251 -73 -521 -98 -738 -69 -159 21 -246 44 -413 110 -155 61
-241 85 -414 115 -106 19 -228 27 -239 17z"/>
</g>
</svg>
