<svg xmlns="http://www.w3.org/2000/svg" viewBox="0 0 271.89 229.12"><defs><style>.cls-1{fill:#408de4;}.cls-2{fill:#ffd200;}</style></defs><title>Ресурс 1</title><g id="Слой_2" data-name="Слой 2"><g id="Layer_1" data-name="Layer 1"><path class="cls-1" d="M195.07,155.55H33.15a7.65,7.65,0,0,1-7.46-6L.19,37.39a7.65,7.65,0,0,1,7.46-9.34H173.48L162.73,17.3A7.65,7.65,0,1,1,173.55,6.48l23.81,23.81A7.65,7.65,0,0,1,192,43.35H17.23l22,96.9h150l38-134.67A7.64,7.64,0,0,1,234.6,0h29.64a7.65,7.65,0,0,1,0,15.3H240.39L202.44,150a7.66,7.66,0,0,1-7.37,5.58Z"/><path class="cls-2" d="M163.2,229.12a31,31,0,1,1,31-31,31,31,0,0,1-31,31Zm0-46.67a15.69,15.69,0,1,0,15.68,15.68,15.7,15.7,0,0,0-15.68-15.68Z"/><path class="cls-2" d="M62.73,229.12a31,31,0,1,1,31-31,31,31,0,0,1-31,31Zm0-46.67a15.69,15.69,0,1,0,15.68,15.68,15.7,15.7,0,0,0-15.68-15.68Z"/><path class="cls-1" d="M170.08,65a7.65,7.65,0,0,1-5.38-13.08l21.87-21.67a7.65,7.65,0,1,1,10.77,10.86L175.47,62.81A7.61,7.61,0,0,1,170.08,65Z"/></g></g></svg>